<svg xmlns="http://www.w3.org/2000/svg" xmlns:xlink="http://www.w3.org/1999/xlink" zoomAndPan="magnify" preserveAspectRatio="xMidYMid meet" version="1.0" viewBox="0 0 374.98 375"><path fill="#ffffff" d="M 187.484375 373.746094 C 163.816406 373.746094 141.734375 360.945312 125.851562 338.691406 C 121.835938 339.195312 117.878906 339.449219 113.984375 339.449219 C 89.347656 339.449219 67.792969 328.980469 54.847656 310.734375 C 43.65625 294.953125 39.546875 275.101562 42.726562 253.386719 C 16.417969 237.328125 1.253906 213.71875 1.253906 187.5 C 1.253906 161.28125 16.417969 137.671875 42.726562 121.613281 C 39.554688 99.898438 43.65625 80.046875 54.847656 64.265625 C 67.792969 46.019531 89.347656 35.558594 113.984375 35.558594 C 117.878906 35.558594 121.835938 35.8125 125.851562 36.316406 C 141.734375 14.0625 163.816406 1.261719 187.484375 1.261719 C 212.039062 1.261719 234.546875 14.761719 250.507812 38.296875 C 258.292969 36.480469 265.933594 35.574219 273.375 35.574219 C 298.65625 35.574219 320.527344 46.5 333.390625 65.558594 C 345.03125 82.808594 348.351562 105.277344 343.191406 129.203125 C 362.8125 144.75 373.726562 165.246094 373.726562 187.507812 C 373.726562 209.765625 362.8125 230.265625 343.191406 245.8125 C 348.359375 269.746094 345.039062 292.214844 333.398438 309.464844 C 320.535156 328.515625 298.664062 339.441406 273.382812 339.441406 C 273.375 339.441406 273.375 339.441406 273.375 339.441406 C 265.933594 339.441406 258.292969 338.527344 250.507812 336.71875 C 234.546875 360.238281 212.039062 373.746094 187.484375 373.746094 Z M 187.484375 373.746094 " fill-opacity="1" fill-rule="nonzero"/><path fill="#ffffff" d="M 187.484375 375 C 163.679688 375 141.609375 362.585938 125.265625 340.019531 C 95.511719 343.523438 68.953125 332.765625 53.828125 311.453125 C 42.652344 295.695312 38.355469 275.851562 41.378906 254.015625 C 15.066406 237.710938 0 213.503906 0 187.5 C 0 161.496094 15.066406 137.289062 41.378906 120.976562 C 38.363281 99.136719 42.660156 79.289062 53.828125 63.539062 C 68.949219 42.21875 95.632812 31.484375 125.265625 34.972656 C 141.609375 12.414062 163.679688 0 187.484375 0 C 212.109375 0 234.660156 13.085938 251.054688 36.878906 C 258.628906 35.175781 266.136719 34.3125 273.375 34.3125 C 299.078125 34.3125 321.328125 45.441406 334.433594 64.851562 C 346.003906 81.996094 349.597656 104.648438 344.578125 128.707031 C 364.191406 144.496094 374.984375 165.351562 374.984375 187.507812 C 374.984375 209.664062 364.191406 230.519531 344.578125 246.308594 C 349.597656 270.367188 346.003906 293.023438 334.433594 310.164062 C 321.328125 329.566406 299.085938 340.695312 273.382812 340.695312 C 266.144531 340.695312 258.636719 339.832031 251.054688 338.128906 C 234.660156 361.914062 212.109375 375 187.484375 375 Z M 126.433594 337.359375 L 126.871094 337.964844 C 142.769531 360.234375 164.296875 372.496094 187.484375 372.496094 C 211.492188 372.496094 233.511719 359.535156 249.464844 336.007812 L 249.953125 335.296875 L 250.792969 335.488281 C 258.472656 337.273438 266.070312 338.183594 273.382812 338.183594 C 298.246094 338.183594 319.738281 327.457031 332.363281 308.753906 C 343.664062 291.996094 347.085938 269.738281 341.96875 246.066406 L 341.804688 245.300781 L 342.421875 244.816406 C 361.808594 229.453125 372.480469 209.101562 372.480469 187.492188 C 372.480469 165.886719 361.808594 145.53125 342.421875 130.171875 L 341.804688 129.683594 L 341.96875 128.917969 C 347.078125 105.246094 343.664062 82.988281 332.355469 66.234375 C 319.726562 47.527344 298.230469 36.800781 273.375 36.800781 C 266.0625 36.800781 258.464844 37.710938 250.785156 39.496094 L 249.945312 39.691406 L 249.457031 38.976562 C 233.511719 15.464844 211.5 2.503906 187.484375 2.503906 C 164.296875 2.503906 142.769531 14.765625 126.871094 37.035156 L 126.433594 37.640625 L 125.691406 37.550781 C 121.746094 37.058594 117.808594 36.808594 113.984375 36.808594 C 89.761719 36.808594 68.574219 47.085938 55.867188 64.996094 C 44.933594 80.40625 40.816406 99.921875 43.964844 121.433594 L 44.085938 122.25 L 43.378906 122.675781 C 17.023438 138.765625 2.503906 161.78125 2.503906 187.5 C 2.503906 213.21875 17.023438 236.234375 43.386719 252.316406 L 44.09375 252.742188 L 43.972656 253.558594 C 40.824219 275.070312 44.941406 294.585938 55.875 309.996094 C 70.582031 330.726562 96.585938 341.078125 125.691406 337.441406 Z M 126.433594 337.359375 " fill-opacity="1" fill-rule="nonzero"/><path fill="#f53e7e" d="M 313.738281 139.898438 C 337.214844 81.710938 297.34375 43.148438 238.566406 68.585938 C 214.957031 13.566406 163.15625 12.246094 138.195312 64.613281 C 86.917969 48.441406 53.601562 83.121094 71.804688 135.097656 C 11.121094 159.023438 11.121094 215.984375 71.804688 239.910156 C 53.601562 291.886719 86.917969 326.566406 138.195312 310.394531 C 163.164062 362.761719 214.964844 361.433594 238.566406 306.421875 C 297.34375 331.859375 337.207031 293.289062 313.738281 235.101562 C 360.324219 210.78125 360.324219 164.21875 313.738281 139.898438 Z M 313.738281 139.898438 " fill-opacity="1" fill-rule="nonzero"/><path fill="#fbfaf9" d="M 188.625 254.011719 L 130.050781 195.433594 C 117.179688 182.566406 117.179688 161.707031 130.050781 148.835938 C 142.921875 135.96875 163.777344 135.96875 176.648438 148.835938 L 188.625 160.816406 L 198.546875 150.890625 C 211.417969 138.023438 232.273438 138.023438 245.144531 150.890625 C 258.015625 163.761719 258.015625 184.621094 245.144531 197.488281 Z M 188.625 254.011719 " fill-opacity="1" fill-rule="nonzero"/></svg>